<svg id="Capa_1" enable-background="new 0 0 512 512" height="512" viewBox="0 0 512 512" width="512" xmlns="http://www.w3.org/2000/svg"><g><path d="m321.368 251.01c2.028-4.638 1.58-9.985-1.19-14.221s-7.492-6.789-12.554-6.789h-183.247c-5.062 0-9.782 2.553-12.553 6.789s-3.219 9.583-1.191 14.221c18.325 41.91 59.685 68.99 105.367 68.99s87.042-27.08 105.368-68.99zm-170.139 8.99h129.542c-15.897 18.723-39.437 30-64.771 30-25.335 0-48.874-11.277-64.771-30z"/><path d="m479.416 400.292-40-80c-2.54-5.082-7.734-8.292-13.416-8.292s-10.876 3.21-13.416 8.292l-40 80c-2.325 4.649-2.077 10.172.656 14.594s7.562 7.114 12.76 7.114h25v40c0 11.028-8.972 20-20 20h-270c-11.028 0-20-8.972-20-20s8.972-20 20-20h60c27.57 0 50-22.43 50-50v-12.65c89.499-7.635 160-82.909 160-174.35 0-25.765-5.601-50.246-15.643-72.294l3.649-4.257c15.026-17.53 22.812-39.89 21.927-62.961s-10.365-44.769-26.691-61.094c-2.813-2.813-6.628-4.394-10.607-4.394s-7.794 1.581-10.606 4.394l-49.258 49.259c-25.818-15.031-55.805-23.653-87.771-23.653s-61.953 8.622-87.77 23.652l-49.258-49.258c-5.857-5.858-15.355-5.858-21.213 0-16.326 16.325-25.805 38.023-26.691 61.094s6.901 45.432 21.927 62.962l3.648 4.256c-10.042 22.048-15.643 46.529-15.643 72.294 0 91.442 70.501 166.716 160 174.35v12.65c0 11.028-8.972 20-20 20h-60c-27.57 0-50 22.43-50 50s22.43 50 50 50h270c27.57 0 50-22.43 50-50v-40h25c5.198 0 10.026-2.692 12.76-7.114s2.982-9.944.656-14.594zm-117.11-362.749c12.273 20.677 11.473 47.355-2.88 67.308-8.763-12.513-19.12-23.828-30.774-33.655zm-292.611 0 33.653 33.653c-11.654 9.827-22.01 21.143-30.774 33.655-14.352-19.954-15.152-46.632-2.879-67.308zm1.305 167.457c0-79.953 65.047-145 145-145s145 65.047 145 145-65.047 145-145 145-145-65.047-145-145zm339.271 187 15.729-31.459 15.73 31.459z"/><path d="m165.394 190.607c5.858 5.858 15.355 5.858 21.213 0 5.858-5.858 5.858-15.355 0-21.213l-40-40c-5.858-5.858-15.355-5.858-21.213 0-5.858 5.858-5.858 15.355 0 21.213z"/><path d="m245.394 190.607c5.858 5.858 15.355 5.858 21.213 0l40-40c5.858-5.858 5.858-15.355 0-21.213-5.858-5.858-15.355-5.858-21.213 0l-40 40c-5.858 5.857-5.858 15.355 0 21.213z"/></g></svg>