<svg id="Capa_1" enable-background="new 0 0 512 512" height="512" viewBox="0 0 512 512" width="512" xmlns="http://www.w3.org/2000/svg"><g><g><path d="m357.743 153.245-72.436-81.139 67.712-67.713c5.858-5.858 15.355-5.858 21.213 0 16.326 16.326 25.806 38.023 26.691 61.094s-6.9 45.432-21.927 62.961z" fill="#be4dd8"/><path d="m74.239 153.245-21.254-24.795c-15.026-17.53-22.813-39.891-21.927-62.962s10.365-44.769 26.691-61.094c5.858-5.858 15.355-5.858 21.213 0l67.712 67.713z" fill="#ef5ca2"/><path d="m390.991 512h-270c-27.57 0-50-22.43-50-50s22.43-50 50-50h60c11.028 0 20-8.972 20-20v-27c0-8.284 6.716-15 15-15s15 6.716 15 15v27c0 27.57-22.43 50-50 50h-60c-11.028 0-20 8.972-20 20s8.972 20 20 20h270c11.028 0 20-8.972 20-20v-55c0-8.284 6.716-15 15-15s15 6.716 15 15v55c0 27.57-22.43 50-50 50z" fill="#55696e"/><g fill="#323c3c"><path d="m425.991 392c-8.284 0-15 6.716-15 15v55c0 11.028-8.972 20-20 20h-175v30h175c27.57 0 50-22.43 50-50v-55c0-8.284-6.716-15-15-15z"/><path d="m230.991 392v-27c0-8.284-6.716-15-15-15v77.662c9.248-9.079 15-21.709 15-35.662z"/></g><path d="m215.991 380c-96.495 0-175-78.505-175-175s78.505-175 175-175 175 78.505 175 175-78.505 175-175 175z" fill="#ffef4a"/><path d="m390.991 205c0-96.495-78.505-175-175-175v350c96.495 0 175-78.505 175-175z" fill="#ffb655"/><path d="m215.991 320c-45.683 0-87.042-27.081-105.367-68.991-2.028-4.638-1.58-9.985 1.191-14.221s7.491-6.788 12.552-6.788h183.248c5.062 0 9.782 2.553 12.553 6.789s3.219 9.583 1.19 14.221c-18.325 41.909-59.685 68.99-105.367 68.99z" fill="#ef5ca2"/><path d="m307.615 230h-91.624v90c45.683 0 87.042-27.081 105.367-68.99 2.028-4.638 1.58-9.985-1.19-14.221s-7.492-6.789-12.553-6.789z" fill="#be4dd8"/><path d="m165.384 190.607-40-40c-5.858-5.858-5.858-15.355 0-21.213 5.858-5.858 15.355-5.858 21.213 0l40 40c5.858 5.858 5.858 15.355 0 21.213-5.858 5.858-15.355 5.858-21.213 0z" fill="#55696e"/><path d="m245.384 190.607c-5.858-5.858-5.858-15.355 0-21.213l40-40c5.858-5.858 15.355-5.858 21.213 0 5.858 5.858 5.858 15.355 0 21.213l-40 40c-5.858 5.858-15.355 5.858-21.213 0z" fill="#323c3c"/></g><path d="m465.991 422h-80c-11.151 0-18.403-11.735-13.416-21.708l40-80c5.528-11.056 21.305-11.056 26.833 0l40 80c4.986 9.973-2.267 21.708-13.417 21.708z" fill="#ef5ca2"/><g><path d="m479.407 400.292-40-80c-2.764-5.528-8.09-8.292-13.416-8.292v110h40c11.15 0 18.403-11.735 13.416-21.708z" fill="#be4dd8"/></g></g></svg>