<svg id="Capa_1" enable-background="new 0 0 512 512" height="512" viewBox="0 0 512 512" width="512" xmlns="http://www.w3.org/2000/svg"><g><g fill="#f9f9f9"><path d="m172.23 104.303c-17.619-26.428-47.281-42.303-79.044-42.303h-78.186c-8.284 0-15 6.716-15 15 0 30.376 24.624 55 55 55h30.871l33.395 139.783h100.866v-95.628z"/><path d="m132.58 272h-36.58c-30.376 0-55-24.624-55-55 0-8.284 6.716-15 15-15h76.58z"/><path d="m121 202h-45c-30.376 0-55-24.624-55-55 0-8.284 6.716-15 15-15h85z"/></g><g fill="#e2dff4"><path d="m339.77 104.303c17.619-26.428 47.281-42.303 79.044-42.303h78.186c8.284 0 15 6.716 15 15 0 30.376-24.624 55-55 55h-30.871l-33.395 139.783h-100.865v-95.628z"/><path d="m379.42 202h76.58c8.284 0 15 6.716 15 15 0 30.376-24.624 55-55 55h-36.58z"/><path d="m391 132h85c8.284 0 15 6.716 15 15 0 30.376-24.624 55-55 55h-45z"/></g><path d="m256 90c-42.24 0-85-15.457-85-45s42.76-45 85-45 85 15.457 85 45-42.76 45-85 45zm-54.798-45c1.018 1.466 4.852 5.17 14.341 8.671 11.061 4.081 25.429 6.329 40.457 6.329s29.396-2.248 40.457-6.329c9.489-3.501 13.324-7.206 14.341-8.671-1.018-1.466-4.852-5.17-14.341-8.671-11.061-4.081-25.429-6.329-40.457-6.329s-29.396 2.248-40.457 6.329c-9.489 3.501-13.323 7.205-14.341 8.671zm109.863.47h.01z" fill="#ffef4a"/><path d="m296.457 36.329c9.489 3.501 13.324 7.206 14.341 8.671-1.018 1.466-4.852 5.17-14.341 8.671-11.061 4.081-25.429 6.329-40.457 6.329v30c42.24 0 85-15.457 85-45s-42.76-45-85-45v30c15.028 0 29.396 2.248 40.457 6.329z" fill="#ffb655"/><g><path d="m256 512c-96.495 0-175-78.505-175-175s78.505-175 175-175 175 78.505 175 175-78.505 175-175 175z" fill="#ffef4a"/><path d="m431 337c0-96.495-78.505-175-175-175v350c96.495 0 175-78.505 175-175z" fill="#ffb655"/><path d="m256 452c-63.411 0-115-51.589-115-115 0-8.284 6.716-15 15-15h200c8.284 0 15 6.716 15 15 0 63.411-51.589 115-115 115z" fill="#ef5ca2"/><path d="m356 322h-100v130c63.411 0 115-51.589 115-115 0-8.284-6.716-15-15-15z" fill="#be4dd8"/><path d="m196 292c-8.284 0-15-6.716-15-15v-20c0-8.284 6.716-15 15-15s15 6.716 15 15v20c0 8.284-6.716 15-15 15z" fill="#55696e"/><path d="m316 292c-8.284 0-15-6.716-15-15v-20c0-8.284 6.716-15 15-15s15 6.716 15 15v20c0 8.284-6.716 15-15 15z" fill="#323c3c"/></g></g></svg>