<svg id="Capa_1" enable-background="new 0 0 512 512" height="512" viewBox="0 0 512 512" width="512" xmlns="http://www.w3.org/2000/svg"><g><path d="m256 90c42.24 0 85-15.457 85-45s-42.76-45-85-45-85 15.457-85 45 42.76 45 85 45zm-40.457-53.671c11.061-4.081 25.429-6.329 40.457-6.329s29.396 2.248 40.457 6.329c9.489 3.501 13.324 7.206 14.341 8.671-1.018 1.466-4.852 5.17-14.341 8.671-11.061 4.081-25.429 6.329-40.457 6.329s-29.396-2.248-40.457-6.329c-9.489-3.501-13.324-7.206-14.341-8.671 1.018-1.466 4.852-5.17 14.341-8.671z"/><path d="m489.519 130.493c13.868-13.618 22.481-32.568 22.481-53.493 0-8.284-6.716-15-15-15h-78.185c-31.836 0-61.386 15.814-79.045 42.304l-41.855 62.782c-13.435-3.315-27.471-5.086-41.915-5.086s-28.48 1.771-41.914 5.086l-41.856-62.783c-17.659-26.489-47.209-42.303-79.044-42.303h-78.186c-8.284 0-15 6.716-15 15 0 20.925 8.613 39.875 22.481 53.493-.949 1.968-1.481 4.175-1.481 6.507 0 20.589 8.34 39.268 21.819 52.834-1.16 2.129-1.819 4.571-1.819 7.166 0 33.987 22.732 62.749 53.784 71.925-8.874 20.935-13.784 43.942-13.784 68.075 0 96.495 78.505 175 175 175s175-78.505 175-175c0-24.133-4.91-47.14-13.784-68.075 31.052-9.176 53.784-37.938 53.784-71.925 0-2.595-.659-5.037-1.819-7.166 13.479-13.566 21.819-32.245 21.819-52.834 0-2.332-.532-4.539-1.481-6.507zm-415.949 81.507h32.43c8.284 0 15-6.716 15-15s-6.716-15-15-15h-10c-19.556 0-36.239-12.539-42.43-30h42.43c8.284 0 15-6.716 15-15s-6.716-15-15-15h-21c-19.556 0-36.239-12.539-42.43-30h60.615c21.782 0 42 10.82 54.083 28.944l37.486 56.229c-30.854 13.808-57.003 36.296-75.334 64.339-16.65-2.45-30.366-14.047-35.85-29.512zm182.43 270c-79.953 0-145-65.047-145-145s65.047-145 145-145 145 65.047 145 145-65.047 145-145 145zm181-360h-11c-8.284 0-15 6.716-15 15s6.716 15 15 15h32.43c-6.191 17.461-22.874 30-42.43 30h-10c-8.284 0-15 6.716-15 15s6.716 15 15 15h32.43c-5.483 15.465-19.199 27.062-35.85 29.512-18.331-28.043-44.48-50.531-75.334-64.339l37.486-56.229c12.082-18.124 32.3-28.944 54.083-28.944h60.615c-6.191 17.461-22.874 30-42.43 30z"/><path d="m156 322c-8.284 0-15 6.716-15 15 0 63.411 51.589 115 115 115s115-51.589 115-115c0-8.284-6.716-15-15-15zm100 100c-41.751 0-76.569-30.261-83.675-70h167.35c-7.106 39.739-41.924 70-83.675 70z"/><path d="m196 292c8.284 0 15-6.716 15-15v-20c0-8.284-6.716-15-15-15s-15 6.716-15 15v20c0 8.284 6.716 15 15 15z"/><path d="m316 292c8.284 0 15-6.716 15-15v-20c0-8.284-6.716-15-15-15s-15 6.716-15 15v20c0 8.284 6.716 15 15 15z"/></g></svg>